<?xml version="1.0" encoding="UTF-8" standalone="no"?>
<!-- Created with Inkscape (http://www.inkscape.org/) -->

<svg
   xmlns:dc="http://purl.org/dc/elements/1.1/"
   xmlns:cc="http://creativecommons.org/ns#"
   xmlns:rdf="http://www.w3.org/1999/02/22-rdf-syntax-ns#"
   xmlns:svg="http://www.w3.org/2000/svg"
   xmlns="http://www.w3.org/2000/svg"
   xmlns:sodipodi="http://sodipodi.sourceforge.net/DTD/sodipodi-0.dtd"
   xmlns:inkscape="http://www.inkscape.org/namespaces/inkscape"
   width="160"
   height="80"
   id="svg2"
   version="1.1"
   inkscape:version="0.48.4 r9939"
   sodipodi:docname="logo_bw.svg">
  <defs
     id="defs4" />
  <sodipodi:namedview
     id="base"
     pagecolor="#ffffff"
     bordercolor="#666666"
     borderopacity="1.0"
     inkscape:pageopacity="0"
     inkscape:pageshadow="2"
     inkscape:zoom="3.959798"
     inkscape:cx="137.48246"
     inkscape:cy="21.778044"
     inkscape:document-units="px"
     inkscape:current-layer="layer1"
     showgrid="false"
     fit-margin-top="0"
     fit-margin-left="0"
     fit-margin-right="0"
     fit-margin-bottom="0"
     showguides="false"
     inkscape:guide-bbox="true"
     inkscape:window-width="1920"
     inkscape:window-height="979"
     inkscape:window-x="-8"
     inkscape:window-y="-8"
     inkscape:window-maximized="1"
     guidetolerance="5"
     inkscape:snap-to-guides="true">
    <sodipodi:guide
       orientation="1,0"
       position="35.000005,79.999998"
       id="guide3006" />
    <sodipodi:guide
       orientation="1,0"
       position="6,40"
       id="guide3008" />
    <sodipodi:guide
       orientation="1,0"
       position="31.500005,45.80357"
       id="guide3010" />
    <sodipodi:guide
       orientation="1,0"
       position="38.500005,56.607141"
       id="guide3012" />
    <sodipodi:guide
       orientation="1,0"
       position="64,40"
       id="guide3014" />
    <sodipodi:guide
       orientation="1,0"
       position="61.5,47.589284"
       id="guide3016" />
    <sodipodi:guide
       orientation="1,0"
       position="8.5,40"
       id="guide3018" />
    <sodipodi:guide
       orientation="0,1"
       position="35,65"
       id="guide3020" />
    <sodipodi:guide
       orientation="0,1"
       position="181.24688,14.999998"
       id="guide3022" />
    <sodipodi:guide
       orientation="-0.28401534,0.95881973"
       position="35.000005,64.999998"
       id="guide3796" />
    <sodipodi:guide
       orientation="-0.28401534,-0.95881973"
       position="35.000005,64.999998"
       id="guide3800" />
    <sodipodi:guide
       orientation="0,1"
       position="35,40"
       id="guide3804" />
    <sodipodi:guide
       orientation="1,0"
       position="-49.398582,39.999998"
       id="guide3810" />
    <sodipodi:guide
       orientation="1,0"
       position="119.39859,39.999998"
       id="guide3812" />
    <sodipodi:guide
       orientation="-0.28401534,-0.95881973"
       position="35.000005,14.999998"
       id="guide3816" />
    <sodipodi:guide
       orientation="-0.28401534,0.95881973"
       position="35.000005,14.999998"
       id="guide3818" />
    <sodipodi:guide
       orientation="0,1"
       position="35.000005,43"
       id="guide3822" />
    <sodipodi:guide
       orientation="0,1"
       position="35.000005,71"
       id="guide3824" />
    <sodipodi:guide
       orientation="0,1"
       position="35,37"
       id="guide3826" />
    <sodipodi:guide
       orientation="0.035523187,-0.99936885"
       position="35.000005,43"
       id="guide3828" />
    <sodipodi:guide
       orientation="-0.035523156,0.99936885"
       position="35.000005,37"
       id="guide3830" />
    <sodipodi:guide
       orientation="0.035523214,0.99936885"
       position="35.000005,43"
       id="guide3832" />
    <sodipodi:guide
       orientation="-0.035523159,-0.99936885"
       position="35.000005,37"
       id="guide3834" />
    <sodipodi:guide
       orientation="0.34478257,-0.93868258"
       position="35.000005,71"
       id="guide3836" />
    <sodipodi:guide
       orientation="0,1"
       position="35,9"
       id="guide3838" />
    <sodipodi:guide
       orientation="-0.34478253,-0.93868259"
       position="35.000005,9"
       id="guide3840" />
    <sodipodi:guide
       orientation="0.34478257,0.93868258"
       position="35.000005,71"
       id="guide3842" />
    <sodipodi:guide
       orientation="-0.34478231,0.93868267"
       position="35.000005,9"
       id="guide3844" />
    <sodipodi:guide
       orientation="1,0"
       position="52.5,40"
       id="guide3846" />
    <sodipodi:guide
       orientation="1,0"
       position="157,40"
       id="guide3850" />
    <sodipodi:guide
       orientation="0.42044078,-0.90731998"
       position="119.39862,39.999987"
       id="guide3063" />
    <sodipodi:guide
       orientation="0.99489433,0.10092209"
       position="119.3986,39.999997"
       id="guide3026" />
    <sodipodi:guide
       orientation="0.88087094,0.47335652"
       position="119.39859,40.000096"
       id="guide3028" />
  </sodipodi:namedview>
  <metadata
     id="metadata7">
    <rdf:RDF>
      <cc:Work
         rdf:about="">
        <dc:format>image/svg+xml</dc:format>
        <dc:type
           rdf:resource="http://purl.org/dc/dcmitype/StillImage" />
        <dc:title />
      </cc:Work>
    </rdf:RDF>
  </metadata>
  <g
     inkscape:label="Layer 1"
     inkscape:groupmode="layer"
     id="layer1"
     transform="translate(-279.28568,-666.64789)">
    <path
       style="fill:#000000;fill-opacity:1;stroke:none"
       d="M 65.4375,65 52.5,71 l 70.04324,0 -0.60864,-5.999998 z m 67.39548,2e-6 L 136.05721,71 157,71 l 0,-6 z"
       transform="translate(279.28568,666.64789)"
       id="rect3024"
       inkscape:connector-curvature="0"
       sodipodi:nodetypes="cccccccccc" />
    <path
       style="fill:#000000;fill-opacity:1;stroke:none"
       d="M 11,19.65184 40.000005,9 l 7e-6,6 L 13.5,22.849661 13.5,37.941959 40.000005,37 l 0,34 L 11,60.348162 l 0,-3.938353 25.500005,7.553446 0,-21.087665 L 11,41.969178 z"
       id="path3002"
       inkscape:connector-curvature="0"
       sodipodi:nodetypes="ccccccccccccc"
       transform="translate(274.28568,666.64789)" />
    <path
       sodipodi:nodetypes="ccccccccccccc"
       inkscape:connector-curvature="0"
       id="path3791"
       d="M 40.000005,9 69,19.651836 l 0,3.938356 -25.499995,-7.553443 0,47.926506 L 66.5,57.150346 l 0,-15.092304 -9,0.31991 0,-4.755903 L 69,38.030824 69,60.348173 40.000005,71 z"
       style="fill:#000000;fill-opacity:1;stroke:none;stroke-opacity:1;stroke-linejoin:miter;stroke-width:2;stroke-miterlimit:4;stroke-dasharray:none"
       transform="translate(274.28568,666.64789)" />
    <g
       id="g3793"
       style="font-size:32px;font-style:normal;font-variant:normal;font-weight:normal;font-stretch:normal;line-height:125%;letter-spacing:0px;word-spacing:0px;fill:#000000;fill-opacity:1;stroke:none;font-family:Familiar Pro;-inkscape-font-specification:Familiar Pro;stroke-opacity:1;stroke-width:2;stroke-miterlimit:4;stroke-dasharray:none"
       transform="translate(286.72132,665.89925)">
      <path
         style="fill:#000000;stroke:none;stroke-opacity:1;stroke-width:2;stroke-miterlimit:4;stroke-dasharray:none"
         inkscape:connector-curvature="0"
         id="path3795"
         d="m 60.617737,56.634726 c 0.143997,2.05331 0.951986,3.506623 2.423969,4.359943 1.471975,0.853323 3.31995,1.26665 5.543928,1.239985 2.333292,0.016 4.1786,-0.415995 5.535929,-1.295984 1.3573,-0.879987 2.050623,-2.303967 2.079973,-4.271945 -1.6e-5,-1.398642 -0.384011,-2.457294 -1.151985,-3.175959 -0.768005,-0.718648 -1.919989,-1.249307 -3.455955,-1.591979 L 67.433649,50.9068 C 66.740318,50.737479 66.254991,50.532148 65.977667,50.290807 65.700331,50.049488 65.567,49.73216 65.577673,49.33882 c -0.026,-0.482648 0.161993,-0.85331 0.563993,-1.111986 0.401988,-0.25865 1.173977,-0.389314 2.31597,-0.391995 0.997978,-0.01399 1.689968,0.118012 2.075973,0.395995 0.385984,0.27801 0.62198,0.786003 0.707991,1.52398 l 4.447943,0 c -0.138682,-2.009293 -0.845339,-3.390607 -2.119974,-4.143947 -1.274663,-0.753307 -2.957306,-1.110635 -5.047934,-1.071985 -2.659972,0.008 -4.563945,0.464011 -5.711927,1.367982 -1.147988,0.904004 -1.70798,2.207986 -1.679978,3.91195 0.01133,1.457324 0.364661,2.526643 1.059987,3.207958 0.695321,0.681333 1.664641,1.158659 2.907962,1.431982 l 4.67194,1.119985 c 0.754646,0.194004 1.277306,0.414001 1.56798,0.659992 0.290651,0.246002 0.429315,0.601997 0.415994,1.067986 0.01532,0.585996 -0.215342,1.00599 -0.691991,1.259983 -0.476672,0.254 -1.291327,0.377998 -2.443968,0.371996 -1.187993,0.018 -2.059981,-0.137995 -2.615967,-0.467994 -0.555999,-0.329992 -0.867994,-0.941984 -0.935987,-1.835976 z" />
      <path
         style="fill:#000000;stroke:none;stroke-opacity:1;stroke-width:2;stroke-miterlimit:4;stroke-dasharray:none"
         inkscape:connector-curvature="0"
         id="path3797"
         d="m 94.206034,50.650803 c -0.200014,-2.060627 -0.880005,-3.595273 -2.039975,-4.603941 -1.159998,-1.008637 -2.943973,-1.511297 -5.35193,-1.50798 -3.240632,0.04002 -5.439268,0.872005 -6.595915,2.495967 -1.156654,1.623993 -1.699313,3.799962 -1.627979,6.527916 -0.08467,2.503307 0.41266,4.560612 1.491981,6.171921 1.079316,1.611313 3.248619,2.444635 6.507916,2.499968 2.731286,-0.03067 4.652592,-0.625325 5.763925,-1.783977 1.111303,-1.158649 1.728628,-2.697295 1.851977,-4.615941 l -4.447943,0 c -0.04534,0.856661 -0.322674,1.527318 -0.831989,2.011974 -0.509338,0.484664 -1.36266,0.731327 -2.559967,0.739991 -1.085328,0.056 -1.89065,-0.263993 -2.41597,-0.959988 -0.525332,-0.695987 -0.786662,-2.103967 -0.783989,-4.223946 -0.0073,-2.121295 0.263324,-3.534609 0.811989,-4.239945 0.548652,-0.705312 1.419307,-1.03064 2.611967,-0.975987 1.103976,6.8e-4 1.871965,0.207343 2.30397,0.619991 0.431982,0.412675 0.719978,1.027333 0.863989,1.843977 l 4.415943,0 z" />
      <path
         style="fill:#000000;stroke:none;stroke-opacity:1;stroke-width:2;stroke-miterlimit:4;stroke-dasharray:none"
         inkscape:connector-curvature="0"
         id="path3799"
         d="m 101.74667,61.818659 0,-6.23992 c -0.06,-1.959966 0.13999,-3.559943 0.59999,-4.799938 0.45999,-1.239972 1.53997,-1.879963 3.23996,-1.919975 0.45065,0.004 0.79731,0.02001 1.03998,0.048 0.24265,0.02801 0.36532,0.04401 0.368,0.048 l 0,-4.255945 c 0.002,-0.004 -0.09,-0.01998 -0.276,-0.048 -0.18601,-0.02798 -0.478,-0.04398 -0.87599,-0.048 -1.08333,-0.0073 -1.95665,0.183348 -2.61996,0.571993 -0.66334,0.388678 -1.24066,1.019335 -1.73198,1.891975 l 0,-2.111973 -4.191947,0 0,16.863783 z" />
      <path
         style="fill:#000000;stroke:none;stroke-opacity:1;stroke-width:2;stroke-miterlimit:4;stroke-dasharray:none"
         inkscape:connector-curvature="0"
         id="path3801"
         d="m 109.86422,61.818659 4.44794,0 0,-16.863783 -4.44794,0 z m -0.31999,-20.99173 c -0.0247,0.826676 0.13666,1.429334 0.48399,1.807977 0.34733,0.37868 1.02865,0.565344 2.04397,0.559993 1.01665,0.0054 1.70331,-0.181313 2.05998,-0.559993 0.35665,-0.378643 0.52332,-0.981301 0.49999,-1.807977 0.0233,-0.827967 -0.14334,-1.435958 -0.49999,-1.823976 -0.35667,-0.387972 -1.04333,-0.57997 -2.05998,-0.575993 -1.01532,-0.004 -1.69664,0.188021 -2.04397,0.575993 -0.34733,0.388017 -0.50866,0.996009 -0.48399,1.823976 z" />
      <path
         style="fill:#000000;stroke:none;stroke-opacity:1;stroke-width:2;stroke-miterlimit:4;stroke-dasharray:none"
         inkscape:connector-curvature="0"
         id="path3803"
         d="m 118.57922,44.954876 0,23.359699 4.44795,0 0,-7.935897 c 0.27532,0.441328 0.78065,0.854656 1.51598,1.239984 0.73531,0.385328 1.87263,0.590659 3.41195,0.615992 2.61596,-0.0033 4.44793,-0.740657 5.49593,-2.211972 1.04797,-1.471312 1.55196,-3.656615 1.51198,-6.555915 -0.004,-3.395945 -0.59601,-5.747912 -1.77597,-7.05591 -1.18001,-1.307967 -2.92398,-1.931958 -5.23194,-1.871975 -1.16266,-0.01465 -2.16531,0.142682 -3.00796,0.471994 -0.84266,0.329346 -1.55732,0.918671 -2.14397,1.767977 l 0,-1.823977 z m 4.28795,8.319893 c -0.018,-1.877966 0.25799,-3.201947 0.82799,-3.971949 0.56998,-0.769977 1.54197,-1.141971 2.91596,-1.115985 1.4453,-0.02199 2.44262,0.374009 2.99196,1.187985 0.54931,0.814001 0.81064,2.177982 0.78399,4.091947 0.032,1.781317 -0.20801,3.082632 -0.71999,3.903949 -0.51201,0.821327 -1.48799,1.226654 -2.92796,1.215985 -1.43533,0.01867 -2.44465,-0.386658 -3.02796,-1.215985 -0.58334,-0.829317 -0.86466,-2.194632 -0.84399,-4.095947 z" />
      <path
         style="fill:#000000;stroke:none;stroke-opacity:1;stroke-width:2;stroke-miterlimit:4;stroke-dasharray:none"
         inkscape:connector-curvature="0"
         id="path3805"
         d="m 145.98162,44.954876 -2.87996,0 0,-4.159946 -4.44794,0 0,4.159946 -2.20797,0 0,3.583954 2.20797,0 0,7.295906 c -0.0867,2.247975 0.0867,3.855953 0.51999,4.823938 0.43332,0.967988 1.64664,1.439981 3.63995,1.415982 0.84598,-0.01067 1.57797,-0.05333 2.19597,-0.127999 0.61799,-0.07467 0.94198,-0.117331 0.97199,-0.127998 l 0,-3.295957 c -0.003,0.0027 -0.10067,0.01334 -0.29199,0.032 -0.19134,0.01867 -0.45667,0.02934 -0.79599,0.032 -0.85867,0.03067 -1.38133,-0.142662 -1.56798,-0.519994 -0.18667,-0.377325 -0.26134,-1.142647 -0.224,-2.29597 l 0,-7.231907 2.87996,0 z" />
    </g>
  </g>
</svg>
